<?xml version="1.0" encoding="utf-8"?>
<svg viewBox="0 0 177.27083 171.97917" xmlns="http://www.w3.org/2000/svg">
  <path id="rect975-6" style="fill-opacity: 1; stroke: none; stroke-width: 0; stroke-linecap: round; stroke-miterlimit: 4; stroke-dasharray: none; stroke-opacity: 1; fill: rgb(255, 246, 104);" d="M 130.77845,84.85709 87.7698,77.611781 v 80.614599 h 85.46061 z" transform="matrix(1, 0, 0, 1, 0, -7.105427357601002e-15)"/>
  <path id="rect975" style="fill-opacity: 1; stroke: none; stroke-width: 0; stroke-linecap: round; stroke-miterlimit: 4; stroke-dasharray: none; stroke-opacity: 1; fill: rgb(255, 107, 107);" d="M 46.282674,84.857087 88.64367,78.924108 V 158.22638 H 3.8307051 Z" transform="matrix(1, 0, 0, 1, 0, -7.105427357601002e-15)"/>
  <path id="rect970" style="fill-opacity: 1; stroke: none; stroke-width: 1.31416; stroke-linecap: round; stroke-miterlimit: 4; stroke-dasharray: none; stroke-opacity: 1; fill: rgb(62, 191, 255);" d="M 88.6439,13.991205 130.77845,84.85709 88.690311,109.28986 46.282674,84.857087 Z" transform="matrix(1, 0, 0, 1, 0, -7.105427357601002e-15)"/>
  <path style="fill:none;stroke:#000000;stroke-width:0.812103;stroke-linecap:round;stroke-miterlimit:4;stroke-dasharray:none;stroke-opacity:1" id="path845" d="M 173.699 158.236 L 3.572 158.226 L 88.644 13.991 L 173.699 158.236 Z" transform="matrix(1, 0, 0, 1, 0, -7.105427357601002e-15)"/>
  <path style="fill:none;stroke:#000000;stroke-width:0.529692;stroke-linecap:butt;stroke-linejoin:miter;stroke-miterlimit:4;stroke-dasharray:none;stroke-opacity:1" d="m 88.690311,109.28986 -0.0466,48.93652" id="path1000" transform="matrix(1, 0, 0, 1, 0, -7.105427357601002e-15)"/>
  <path style="fill:none;stroke:#000000;stroke-width:0.529692;stroke-linecap:butt;stroke-linejoin:miter;stroke-miterlimit:4;stroke-dasharray:none;stroke-opacity:1" d="M 88.690311,109.28986 46.282673,84.857085" id="path1002" transform="matrix(1, 0, 0, 1, 0, -7.105427357601002e-15)"/>
  <path style="fill:none;stroke:#000000;stroke-width:0.529692;stroke-linecap:butt;stroke-linejoin:miter;stroke-miterlimit:4;stroke-dasharray:none;stroke-opacity:1" d="M 88.690311,109.28986 130.77845,84.85709" id="path1004" transform="matrix(1, 0, 0, 1, 0, -7.105427357601002e-15)"/>
  <text style="white-space: pre; fill: rgb(51, 51, 51); font-family: Arial, sans-serif; font-size: 28px;" x="75.345" y="10.372" transform="matrix(1, 0, 0, 1, 0, -7.105427357601002e-15)"> </text>
</svg>